<svg xmlns="http://www.w3.org/2000/svg" version="1.1" xlink="http://www.w3.org/1999/xlink" xmlns:svgjs="http://svgjs.com/svgjs" width="100%" height="100%" preserveAspectRatio="xMidYMid meet" viewBox="-4.380941476256339e-8 -4.380941476256339e-8 147 147" overflow="visible"><defs id="SvgjsDefs50276"></defs><g id="SvgjsG50277" transform="scale(0.7349999999999999)" opacity="1"><g id="SvgjsG50278" class="ZnS7rEv9B" transform="translate(-2.4000000000000004, -2.4000000000000004) scale(0.4)" light-content="false" non-strokable="true" fill="#00d1b2"><path d="M256 6C117.9 6 6 117.9 6 256s111.9 250 250 250 250-111.9 250-250S394.1 6 256 6zm115.3 313.2c0 25.5-20.7 46.2-46.2 46.2H152.2c-25.5 0-46.2-20.7-46.2-46.2V192.8c0-25.5 20.7-46.2 46.2-46.2h156.1c2.6 0 4.8 2.2 4.8 4.8s-2.1 4.8-4.8 4.8H152.2c-20.1 0-36.5 16.4-36.5 36.5v126.4c0 20.1 16.4 36.5 36.5 36.5h172.9c20.1 0 36.5-16.4 36.5-36.5v-63.2c0-2.6 2.1-4.8 4.8-4.8s4.9 2.1 4.9 4.8v63.3h0zm32.8-152.3L233 295.2l-44.1-88.4c-1.2-2.4-.2-5.3 2.2-6.5s5.3-.2 6.5 2.2l38.9 78 161.8-121.4c2.1-1.6 5.2-1.2 6.8 1s1.2 5.2-1 6.8z" stroke="#00d1b2" stroke-miterlimit="10"></path></g></g></svg>